<?xml version="1.0" encoding="utf-8"?>
<!-- Generator: Adobe Illustrator 25.0.0, SVG Export Plug-In . SVG Version: 6.00 Build 0)  -->
<svg version="1.1" id="Layer_1" xmlns="http://www.w3.org/2000/svg" xmlns:xlink="http://www.w3.org/1999/xlink" x="0px" y="0px"
	 viewBox="0 0 20 20" style="enable-background:new 0 0 20 20;" xml:space="preserve">
<style type="text/css">
	.st0{fill:#003870;}
</style>
<path class="st0" d="M18.7,9.7c-1.9-3.5-5.2-5.6-8.8-5.6C6.3,4.2,3,6.3,1.1,9.7L1,10l0.1,0.3c1.9,3.5,5.2,5.6,8.8,5.6
	s6.9-2.1,8.8-5.6l0.1-0.3L18.7,9.7z M9.9,14.7c-3.1,0-6-1.7-7.7-4.7c1.7-2.9,4.5-4.7,7.7-4.7c3.1,0,6,1.8,7.7,4.7
	C15.9,12.9,13,14.7,9.9,14.7z"/>
<path class="st0" d="M10.1,6.2C9.3,6.2,8.6,6.4,8,6.9c-0.6,0.4-1.1,1-1.4,1.7S6.2,10,6.3,10.8c0.2,0.7,0.5,1.4,1.1,1.9
	c0.5,0.5,1.2,0.9,2,1c0.7,0.1,1.5,0.1,2.2-0.2s1.3-0.8,1.7-1.4c0.4-0.6,0.6-1.4,0.6-2.1c0-0.5-0.1-1-0.3-1.5s-0.5-0.9-0.8-1.2
	C12.4,7,12,6.7,11.5,6.5S10.6,6.2,10.1,6.2z M10.1,12.7c-0.5,0-1.1-0.2-1.5-0.5s-0.8-0.7-1-1.2s-0.3-1-0.1-1.6
	c0.1-0.5,0.4-1,0.7-1.4C8.5,7.7,9,7.5,9.6,7.4c0.5-0.1,1.1-0.1,1.6,0.2c0.5,0.2,0.9,0.5,1.2,1c0.3,0.4,0.5,1,0.5,1.5
	c0,0.4-0.1,0.7-0.2,1c-0.1,0.3-0.3,0.6-0.6,0.9c-0.3,0.3-0.6,0.5-0.9,0.6S10.4,12.7,10.1,12.7z"/>
</svg>
