<?xml version="1.0" encoding="utf-8"?>
<!-- Generator: Adobe Illustrator 25.0.0, SVG Export Plug-In . SVG Version: 6.00 Build 0)  -->
<svg version="1.1" id="Layer_1" xmlns="http://www.w3.org/2000/svg" xmlns:xlink="http://www.w3.org/1999/xlink" x="0px" y="0px"
	 viewBox="0 0 12 12" style="enable-background:new 0 0 12 12;" xml:space="preserve">
<style type="text/css">
	.st0{fill:#003870;}
</style>
<path class="st0" d="M9.2,5.2L6.3,0.6c0-0.1-0.1-0.1-0.1-0.1c-0.1,0-0.1,0-0.2,0c-0.1,0-0.1,0-0.2,0c-0.1,0-0.1,0.1-0.1,0.1L2.8,5.2
	C2.2,5.9,2,6.7,2,7.6c0,2.2,1.8,4,4,4c2.2,0,4-1.8,4-4C10,6.7,9.8,5.9,9.2,5.2z M6,10.8c-1.8,0-3.3-1.5-3.3-3.3
	c0-0.7,0.2-1.4,0.6-1.9c0,0,0,0,0,0L6,1.5l2.6,4.1c0,0,0,0,0,0c0.4,0.6,0.6,1.2,0.6,1.9C9.3,9.4,7.8,10.8,6,10.8z"/>
</svg>
