 <svg xmlns="http://www.w3.org/2000/svg" height="24" viewBox="0 0 32 25.38"><defs><style>.cls-1{opacity:0.7;}.cls-2{fill:#43a5ff;}</style></defs><g id="Layer_2" data-name="Layer 2"><g id="Layer_1-2" data-name="Layer 1"><g class="cls-1"><path class="cls-2" d="M26.37,12.88a7.18,7.18,0,0,1-2.23,5.22,3.56,3.56,0,0,0-2.85-1.33,4,4,0,0,0-5.66-4.3,5.11,5.11,0,0,0-2.8-3.19,7.25,7.25,0,0,1,13.54,3.6Z"/><path class="cls-2" d="M19.12,4a.81.81,0,0,1-.81-.81V.81a.81.81,0,1,1,1.61,0V3.22A.81.81,0,0,1,19.12,4Z"/><path class="cls-2" d="M31.2,13.69H28.78a.81.81,0,1,1,0-1.61H31.2a.81.81,0,0,1,0,1.61Z"/><path class="cls-2" d="M26,6.86a.81.81,0,0,1-.57-1.38l1.71-1.71a.81.81,0,1,1,1.14,1.14L26.52,6.62a.8.8,0,0,1-.57.24Z"/><path class="cls-2" d="M27.66,22.23a.8.8,0,0,1-.57-.24l-1.71-1.71a.8.8,0,0,1,1.14-1.13l1.71,1.7a.81.81,0,0,1-.57,1.38Z"/><path class="cls-2" d="M12.28,6.86a.77.77,0,0,1-.56-.24L10,4.91a.8.8,0,0,1,0-1.14.81.81,0,0,1,1.14,0l1.71,1.71A.82.82,0,0,1,12.28,6.86Z"/></g><path class="cls-2" d="M20,18.29A4,4,0,0,0,14.36,14a5.12,5.12,0,0,0-10,1.95,4.73,4.73,0,0,0,.37,9.44H20.1A3.55,3.55,0,1,0,20,18.29Z"/></g></g></svg>