<svg xmlns="http://www.w3.org/2000/svg" width="36" height="36" viewBox="0 0 36 36"><path d="M18,36A18,18,0,1,0,0,18,18,18,0,0,0,18,36Z" fill="#34aadf"/><path d="M87.967,153.386s9-3.694,12.121-4.994c1.2-.52,5.254-2.185,5.254-2.185s1.873-.728,1.717,1.04c-.052.728-.468,3.277-.884,6.035-.624,3.9-1.3,8.168-1.3,8.168s-.1,1.2-.988,1.4-2.341-.728-2.6-.936c-.208-.156-3.9-2.5-5.254-3.642a.986.986,0,0,1,.052-1.665c1.873-1.717,4.11-3.85,5.462-5.2.624-.624,1.249-2.081-1.353-.312-3.694,2.549-7.335,4.942-7.335,4.942a3.057,3.057,0,0,1-2.393.052C88.9,155.623,87.083,155,87.083,155S85.834,154.218,87.967,153.386Z" transform="translate(-80.476 -135.542)" fill="#fff"/></svg>