<svg xmlns="http://www.w3.org/2000/svg" width="36" height="36" viewBox="0 0 36 36"><g transform="translate(-1276 -737)"><circle cx="18" cy="18" r="18" transform="translate(1276 737)" fill="#0068ff"/><path d="M3080.372,20034.775a18.787,18.787,0,0,1-8.695-2.742,8.7,8.7,0,0,1-4.219.76c-.05-.055-.1-.111-.151-.16a4.444,4.444,0,0,0,1.317-3.119c0-.547-.417-.945-.664-1.4a18.262,18.262,0,0,1-2.313-8.322,20.025,20.025,0,0,1,1.329-8.324,16,16,0,1,1,23.3,21.9q-.432.179-.871.33a22.293,22.293,0,0,1-7.151,1.143C3081.629,20034.846,3081,20034.824,3080.372,20034.775Zm8.444-16.551a3.164,3.164,0,0,0-2.157,1.645,3.2,3.2,0,0,0,.08,3.078,3.148,3.148,0,0,0,3.681,1.393,3.175,3.175,0,0,0-.986-6.186A2.9,2.9,0,0,0,3088.816,20018.225Zm-11.406,1.121a3.16,3.16,0,0,0,.131,4.119,3.075,3.075,0,0,0,4.058.412c.085.191.151.432.372.523a3.7,3.7,0,0,0,.659.035,2.419,2.419,0,0,1,.292,0c0-2.018,0-4.039,0-6.051h-1.292c0,.1.01.3.01.4a3.772,3.772,0,0,0-1.051-.482,2.836,2.836,0,0,0-.764-.105A3.152,3.152,0,0,0,3077.41,20019.346Zm6.613,4.713c.121.426.538.4.936.377a2.157,2.157,0,0,1,.432-.006q-.007-4.043,0-8.086h-1.378C3084.023,20018.914,3084,20021.488,3084.023,20024.059Zm-9.826.371c.458,0,.915,0,1.368.006.221-.006.493.014.639-.191.236-.312.111-.734.136-1.1-1.554,0-3.108.01-4.662,0,1.463-1.82,2.9-3.666,4.36-5.492a1.959,1.959,0,0,0,.317-1.211c-2.137-.016-4.28,0-6.417,0-.005.457-.005.91,0,1.367.976-.01,1.951-.01,2.932-.01h1.509c-1.438,1.82-2.9,3.621-4.345,5.432a1.761,1.761,0,0,0-.3,1.2q1.644.015,3.289,0Zm13.518-2.439a1.878,1.878,0,0,1,1.076-2.4,1.859,1.859,0,1,1,1.136,3.535,1.535,1.535,0,0,1-.478.07A1.864,1.864,0,0,1,3087.714,20021.99Zm-9.53.182a1.851,1.851,0,0,1,.97-2.555,1.828,1.828,0,0,1,2.354,1.031,1.863,1.863,0,0,1-.825,2.3,1.725,1.725,0,0,1-.845.217A1.838,1.838,0,0,1,3078.185,20022.172Z" transform="translate(-1785 -19267.027)" fill="#fff"/></g></svg>